<svg fill="none" xmlns="http://www.w3.org/2000/svg" viewBox="0 0 40 52"><path d="M16.9769 2.9345h.1366c.253 0 .5262.0255.7969.0483a22.6245 22.6245 0 013.5416.534V.6535a21.0905 21.0905 0 00-3.6555-.5823C17.3285.0356 16.8302.0127 16.3192 0h-.4275a29.7934 29.7934 0 00-7.3363.946 29.727 29.727 0 00-7.784 3.1659v28.3967a31.6345 31.6345 0 017.4198-2.8913 32.3603 32.3603 0 016.2281-.9561h.0835a24.444 24.444 0 011.065-.0306v-2.909a34.3284 34.3284 0 00-8.095 1.0756c-.979.2543-1.9252.5289-2.8131.8341l-1.012.3433V5.8334l.4327-.2085a28.2754 28.2754 0 0110.516-2.6828.6267.6267 0 01.0911 0c.4022-.0203.807-.0305 1.2042-.0305h.4553c.21.0051.4199.0102.6299.023z" fill="#AFB1B8"/><path d="M24.1108 5.9326c-.6653 0-1.3231-.0229-1.958-.0712-.7589-.056-1.5381-.1475-2.2768-.2721a22.957 22.957 0 01-1.323-.267v28.0712a22.4048 22.4048 0 005.5654.6561 29.9427 29.9427 0 007.3362-.9435 29.815 29.815 0 007.7865-3.1659V2.0496a31.7767 31.7767 0 01-7.4172 2.8938 31.4672 31.4672 0 01-7.7131.9892zm11.2244.4857l1.0119-.3408v22.1488l-.4326.2085a27.7638 27.7638 0 01-5.1733 1.8589 26.8836 26.8836 0 01-6.6203.8569c-.6678 0-1.3306-.0279-1.9732-.0839l-.6931-.061V8.2288l.807.0534c.5869.0382 1.194.056 1.8542.056A34.2628 34.2628 0 0032.5221 7.26a44.5537 44.5537 0 002.8131-.8417zm-32.598 35.794a1.4918 1.4918 0 00-.5147-.3478 1.4857 1.4857 0 00-.611-.1074 1.6743 1.6743 0 00-.6501.122 1.5028 1.5028 0 00-.506.3332 1.4632 1.4632 0 00-.3263.5085 1.6503 1.6503 0 00-.1164.6281v3.7941a1.7881 1.7881 0 00.1493.7781c.0895.1944.2188.3677.3794.5086a1.3289 1.3289 0 00.5212.2695c.1845.0519.375.0784.5666.0789a1.418 1.418 0 00.6122-.1323 1.5968 1.5968 0 00.506-.3509 1.649 1.649 0 00.3314-.5086 1.5325 1.5325 0 00.1214-.6052v-.4247h-.9917v.3383a.8816.8816 0 01-.0581.3382.6084.6084 0 01-.1442.2136.6072.6072 0 01-.2075.1093.6973.6973 0 01-.2074.0356.504.504 0 01-.26-.0388.5063.5063 0 01-.2055-.1646.8989.8989 0 01-.1315-.5086v-3.5372a1.2085 1.2085 0 01.1214-.5671.5067.5067 0 01.2102-.1844.5029.5029 0 01.2755-.0444.5258.5258 0 01.2475.052.5288.5288 0 01.1952.1616.8063.8063 0 01.1644.5086v.328h.9816V43.41a1.7883 1.7883 0 00-.1215-.6637 1.5619 1.5619 0 00-.3313-.534zm5.8917-.0431a1.7652 1.7652 0 00-1.1282-.417 1.7364 1.7364 0 00-.592.1068 1.607 1.607 0 00-.5236.3102 1.559 1.559 0 00-.3846.5315 1.7705 1.7705 0 00-.1442.7349v3.6389a1.755 1.755 0 00.1442.7451 1.4766 1.4766 0 00.3846.5086c.1516.1407.3296.2497.5236.3204.1897.0698.39.1059.592.1068a1.7142 1.7142 0 00.592-.1068 1.6564 1.6564 0 00.5362-.3204 1.5546 1.5546 0 00.3744-.5086 1.755 1.755 0 00.1442-.7451v-3.6389a1.7705 1.7705 0 00-.1442-.7349 1.6432 1.6432 0 00-.3744-.5315zm-.463 4.9053a.654.654 0 01-.0391.2857.6512.6512 0 01-.1581.2407.7265.7265 0 01-.4668.17.7265.7265 0 01-.4667-.17.6512.6512 0 01-.1581-.2407.654.654 0 01-.0392-.2857v-3.6389a.654.654 0 01.0392-.2857.6512.6512 0 01.158-.2407.7265.7265 0 01.4668-.17.7265.7265 0 01.4668.17.6512.6512 0 01.1581.2407.654.654 0 01.0392.2857v3.6389zm8.2014 1.6248v-6.8888h-.9537l-1.2522 3.6466h-.0177l-1.2624-3.6466h-.9436v6.8888h.9841v-4.1907h.0177l.9638 2.9625h.4908l.9714-2.9625h.0177v4.1907h.9841zm5.5906-6.4055a1.3658 1.3658 0 00-.5565-.3764 2.1842 2.1842 0 00-.7134-.1068h-1.4622v6.8888h.9816V46.009h.5059c.3063.0139.611-.0508.8854-.1882a1.4299 1.4299 0 00.5388-.5264 1.6467 1.6467 0 00.2252-.6001 4.8985 4.8985 0 00.0531-.7832 3.9324 3.9324 0 00-.0961-.9841 1.4662 1.4662 0 00-.3618-.6332zm-.5059 2.1004a.8679.8679 0 01-.0911.3586.5527.5527 0 01-.253.2416 1.007 1.007 0 01-.4629.0864h-.4478v-2.342h.506a.9413.9413 0 01.4427.0865.5555.5555 0 01.2302.2542c.0536.1211.0829.2516.086.384v.4578c0 .1602.0101.3254 0 .4729h-.0101zm5.1557-2.5837h-.8045l-1.5178 6.8888h.9815l.2884-1.48h1.3382l.2884 1.48h.9816l-1.5558-6.8888zm-.9057 4.4705l.4832-2.4972h.0177l.4807 2.4972h-.9816zm7.2476-.3204h-.0177l-1.4825-4.1501h-.9435v6.8888h.9815v-4.1424h.0202l1.5002 4.1424h.9233v-6.8888h-.9815v4.1501zm5.998-4.1501l-.7893 2.7388h-.0202l-.7893-2.7388h-1.0397l1.3483 3.9772v2.9116h.9816v-2.9116l1.3483-3.9772h-1.0397zM0 50.6447h.473v1.3273h.3213v-1.3273h.4706v-.2721H0v.2721zm3.9767-.2721L3.357 51.972h.3415l.1316-.3636h.6375l.1366.3636h.349l-.6349-1.5994h-.3415zm-.0506.9663l.2176-.5925.2175.5925h-.435zm3.9818.0432h.3694v.206a.6128.6128 0 01-.3795.1348.4037.4037 0 01-.188-.0349.4055.4055 0 01-.151-.1177.6688.6688 0 01-.1189-.417c0-.356.1543-.534.4604-.534a.3375.3375 0 01.2277.0598.3406.3406 0 01.134.1944l.3163-.061c-.0683-.3128-.2934-.4704-.678-.4704a.8044.8044 0 00-.559.206.7802.7802 0 00-.1827.2821.7843.7843 0 00-.0475.3332.8727.8727 0 00.2049.6002.7761.7761 0 00.278.1839.7732.7732 0 00.3291.05.9606.9606 0 00.678-.2543v-.6306h-.6932v.2695zm4.0148-1.0095h-.3238v1.5994h1.1206V51.7h-.7968v-1.3274zm3.3948 0h-.3238v1.5994h.3238v-1.5994zm3.3189 1.068l-.6552-1.068h-.3137v1.5994h.301v-1.0451l.6426 1.0451h.3212v-1.5994h-.2959v1.068zm3.0004-.1729h.7969v-.2721h-.7969v-.3509h.8576v-.2721H21.313v1.5994h1.2143V51.7h-.8905v-.4323zm7.2753-.2645h-.6299v-.6306h-.3213v1.5994h.3213v-.6992h.6299v.6992h.3213v-1.5994h-.3213v.6306zm3.0181.2645h.7994v-.2721h-.7994v-.3509h.8601v-.2721h-1.1814v1.5994h1.2117V51.7h-.8904v-.4323zm4.0931-.0001c.2782-.0432.4199-.1907.4199-.445a.3828.3828 0 00-.0298-.1996.3804.3804 0 00-.1271-.1564.9038.9038 0 00-.468-.0941h-.6779v1.5995h.3213v-.6688h.0632a.431.431 0 01.1998.0356.335.335 0 01.1139.117l.3491.5086h.3845l-.1948-.3128a1.1151 1.1151 0 00-.3541-.384zm-.3239-.2212h-.2377v-.4018h.2529a.8399.8399 0 01.3264.0381.2093.2093 0 01.054.0752.21.21 0 01.0163.0913.2099.2099 0 01-.0247.0893.208.208 0 01-.0608.0697.9127.9127 0 01-.3264.0382zm3.41.2213h.7969v-.2721h-.7969v-.3509h.8602v-.2721h-1.184v1.5994h1.2143V51.7h-.8905v-.4323z" fill="#AFB1B8"/></svg>