<svg width="40" height="52" fill="none" xmlns="http://www.w3.org/2000/svg"><path d="M16.9769 2.93452h.1366c.253 0 .5262.02543.7969.04832a22.6245 22.6245 0 013.5416.53401V.65353A21.09049 21.09049 0 0017.7965.0712C17.3285.0356 16.8302.01271 16.3192 0h-.4275a29.7934 29.7934 0 00-7.33625.94596C5.82521 1.62687 3.20457 2.69275.77148 4.1119V32.5086c2.34273-1.2729 4.83556-2.2443 7.41969-2.8913a32.3603 32.3603 0 016.22813-.9561h.0835c.3517-.0178.7033-.028 1.065-.0306v-2.909a34.3284 34.3284 0 00-8.09507 1.0756c-.97901.2543-1.92512.5289-2.81306.8341l-1.01189.3433V5.83344l.43258-.20852C7.38159 4.05951 10.9521 3.14863 14.5964 2.94215a.62671.62671 0 01.0911 0c.4022-.02034.807-.03052 1.2042-.03052h.4553c.21.00509.4199.01018.6299.02289z" fill="#AFB1B8"/><path d="M24.1108 5.93259c-.6653 0-1.3231-.02289-1.958-.07121-.7589-.05594-1.5381-.14748-2.2768-.27209-.4503-.07628-.893-.16783-1.323-.267V33.3935a22.4048 22.4048 0 005.5654.6561 29.9427 29.9427 0 007.3362-.9435c2.7307-.6818 5.3521-1.7476 7.7865-3.1659V2.04956c-2.3425 1.27222-4.8343 2.2444-7.4172 2.89383a31.46724 31.46724 0 01-7.7131.9892zm11.2244.48569l1.0119-.34075V28.2263l-.4326.2085a27.76376 27.76376 0 01-5.1733 1.8589c-2.1631.5596-4.3868.8475-6.6203.8569-.6678 0-1.3306-.0279-1.9732-.0839l-.6931-.061V8.22883l.807.05341c.5869.03814 1.194.05594 1.8542.05594a34.2628 34.2628 0 008.4063-1.0782c.9436-.2492 1.8821-.52892 2.8131-.8417zM2.73726 42.2123a1.49178 1.49178 0 00-.51478-.3478 1.48573 1.48573 0 00-.61095-.1074 1.67433 1.67433 0 00-.65014.122 1.50278 1.50278 0 00-.50595.3332 1.4632 1.4632 0 00-.32633.5085 1.65031 1.65031 0 00-.11637.6281v3.7941a1.7881 1.7881 0 00.14926.7781c.08955.1944.21885.3677.37945.5086a1.3289 1.3289 0 00.52113.2695c.18448.0519.3751.0784.56666.0789a1.41809 1.41809 0 00.61219-.1323 1.5968 1.5968 0 00.50594-.3509 1.64905 1.64905 0 00.3314-.5086 1.5325 1.5325 0 00.12143-.6052v-.4247h-.99166v.3383a.88159.88159 0 01-.05818.3382.60844.60844 0 01-.14419.2136.60717.60717 0 01-.20744.1093.69726.69726 0 01-.20744.0356.50391.50391 0 01-.25995-.0388.50635.50635 0 01-.20552-.1646.89888.89888 0 01-.13154-.5086v-3.5372a1.2085 1.2085 0 01.12142-.5671.5067.5067 0 01.2102-.1844.50288.50288 0 01.27551-.0444.52578.52578 0 01.24752.052.52878.52878 0 01.19518.1616.80628.80628 0 01.16443.5086v.328h.98154V43.41a1.78833 1.78833 0 00-.12143-.6637 1.56188 1.56188 0 00-.33139-.534zM8.62892 42.1692c-.31621-.267-.7153-.4145-1.12826-.417a1.73636 1.73636 0 00-.59196.1068 1.60692 1.60692 0 00-.52365.3102 1.55895 1.55895 0 00-.38452.5315 1.77047 1.77047 0 00-.14419.7349v3.6389c-.00684.256.04239.5104.14419.7451a1.4766 1.4766 0 00.38452.5086c.1516.1407.32963.2497.52365.3204.18968.0698.38998.1059.59196.1068a1.71423 1.71423 0 00.59196-.1068 1.65645 1.65645 0 00.5363-.3204 1.5546 1.5546 0 00.3744-.5086 1.75494 1.75494 0 00.14419-.7451v-3.6389a1.77047 1.77047 0 00-.14419-.7349 1.64324 1.64324 0 00-.3744-.5315zm-.46294 4.9053a.65394.65394 0 01-.03918.2857.65121.65121 0 01-.15814.2407.72651.72651 0 01-.46673.17.72654.72654 0 01-.46674-.17.65121.65121 0 01-.15814-.2407.65408.65408 0 01-.03918-.2857v-3.6389a.65408.65408 0 01.03918-.2857.65121.65121 0 01.15814-.2407.72654.72654 0 01.46674-.17.72651.72651 0 01.46673.17.65121.65121 0 01.15814.2407.65394.65394 0 01.03918.2857v3.6389zM16.3673 48.6993v-6.8888h-.9537l-1.2522 3.6466h-.0177l-1.2624-3.6466h-.9436v6.8888h.9841v-4.1907h.0177l.9638 2.9625h.4908l.9714-2.9625h.0177v4.1907h.9841zM21.9579 42.2938a1.36576 1.36576 0 00-.5565-.3764 2.18417 2.18417 0 00-.7134-.1068h-1.4622v6.8888h.9816V46.009h.5059c.3063.0139.611-.0508.8854-.1882.2232-.1239.4092-.3057.5388-.5264.1136-.1832.1901-.3871.2252-.6001a4.8985 4.8985 0 00.0531-.7832 3.93239 3.93239 0 00-.0961-.9841 1.46617 1.46617 0 00-.3618-.6332zm-.5059 2.1004a.86787.86787 0 01-.0911.3586.55267.55267 0 01-.253.2416c-.1454.065-.304.0946-.4629.0864h-.4478v-2.342h.506a.94133.94133 0 01.4427.0865.5555.5555 0 01.2302.2542c.0536.1211.0829.2516.086.384v.4578c0 .1602.0101.3254 0 .4729h-.0101zM26.6077 41.8105h-.8045l-1.5178 6.8888h.9815l.2884-1.48h1.3382l.2884 1.48h.9816l-1.5558-6.8888zm-.9057 4.4705l.4832-2.4972h.0177l.4807 2.4972h-.9816zM32.9496 45.9606h-.0177l-1.4825-4.1501h-.9435v6.8888h.9815v-4.1424h.0202l1.5002 4.1424h.9233v-6.8888h-.9815v4.1501zM38.9476 41.8105l-.7893 2.7388h-.0202l-.7893-2.7388h-1.0397l1.3483 3.9772v2.9116h.9816v-2.9116l1.3483-3.9772h-1.0397zM0 50.6447h.47306v1.3273h.32127v-1.3273h.47053v-.2721H0v.2721zM3.97672 50.3726l-.61979 1.5994h.34152l.13154-.3636h.63749l.13661.3636h.3491l-.63496-1.5994h-.34151zm-.0506.9663l.21756-.5925.21755.5925h-.43511zM7.90793 51.3821h.36934v.206a.61275.61275 0 01-.37946.1348.40368.40368 0 01-.18793-.0349.40549.40549 0 01-.15105-.1177.66879.66879 0 01-.1189-.417c0-.356.15431-.534.46041-.534a.33749.33749 0 01.2277.0598.34062.34062 0 01.13405.1944l.31622-.061c-.0683-.3128-.29345-.4704-.67797-.4704-.20566-.0055-.40564.0682-.55907.206a.78023.78023 0 00-.18269.2821.78431.78431 0 00-.04751.3332c-.00932.2189.06386.4332.20491.6002a.77612.77612 0 00.27803.1839.77318.77318 0 00.3291.05c.25027.007.49341-.0842.67797-.2543v-.6306h-.69315v.2695zM11.9227 50.3726h-.3238v1.5994h1.1206V51.7h-.7968v-1.3274zM15.3175 50.3726h-.3238v1.5994h.3238v-1.5994zM18.6364 51.4406l-.6552-1.068h-.3137v1.5994h.301v-1.0451l.6426 1.0451h.3212v-1.5994h-.2959v1.068zM21.6368 51.2677h.7969v-.2721h-.7969v-.3509h.8576v-.2721H21.313v1.5994h1.2143V51.7h-.8905v-.4323zM28.9121 51.0032h-.6299v-.6306h-.3213v1.5994h.3213v-.6992h.6299v.6992h.3213v-1.5994h-.3213v.6306zM31.9302 51.2677h.7994v-.2721h-.7994v-.3509h.8601v-.2721h-1.1814v1.5994h1.2117V51.7h-.8904v-.4323zM36.0233 51.2676c.2782-.0432.4199-.1907.4199-.445a.38278.38278 0 00-.0298-.1996.38042.38042 0 00-.1271-.1564.90378.90378 0 00-.468-.0941h-.6779v1.5995h.3213v-.6688h.0632c.0685-.0042.137.008.1998.0356.047.029.0861.0691.1139.117l.3491.5086h.3845l-.1948-.3128a1.1151 1.1151 0 00-.3541-.384zm-.3239-.2212h-.2377v-.4018h.2529a.83986.83986 0 01.3264.0381.2093.2093 0 01.054.0752c.0122.0288.0177.06.0163.0913a.20987.20987 0 01-.0247.0893.20798.20798 0 01-.0608.0697.9127.9127 0 01-.3264.0382zM39.1094 51.2677h.7969v-.2721h-.7969v-.3509h.8602v-.2721h-1.184v1.5994h1.2143V51.7h-.8905v-.4323z" fill="#AFB1B8"/></svg>