<svg width="89" height="45" fill="none" xmlns="http://www.w3.org/2000/svg"><path d="M44.7404 20.6885c-.418-.5912-.6179-1.2898-.5705-1.9931v-2.8898c0-.8858.1891-1.559.5673-2.0195.3782-.4606 1.0277-.6899 1.9486-.6879.8654 0 1.4796.1959 1.8429.5879.3962.5001.5889 1.1117.5448 1.7286v.679h-1.548v-.6879a3.7216 3.7216 0 00-.0448-.6732c-.0223-.1523-.1003-.2933-.2212-.3998-.1589-.1147-.3592-.1704-.5608-.1558-.2121-.0145-.4225.0442-.5898.1647-.1348.1179-.2247.2725-.2564.4409a3.5552 3.5552 0 00-.0609.7144v3.5071a1.8852 1.8852 0 00.1988.9848.7313.7313 0 00.3089.2386.804.804 0 00.3994.0553c.1983.015.395-.042.548-.1587.1261-.1148.2073-.2647.2308-.4263a4.1026 4.1026 0 00.048-.7026v-.7114h1.548v.6497c.0435.643-.1446 1.2813-.5352 1.8167-.3558.4292-.9615.6438-1.8525.6438-.8909 0-1.564-.2293-1.9454-.7055zM51.1856 20.7179c-.391-.4498-.5865-1.1053-.5865-1.9725v-3.0397c0-.8584.1955-1.5081.5865-1.949.391-.441 1.0448-.6605 1.9614-.6585.9102 0 1.5608.2195 1.9518.6585.391.4409.5897 1.0906.5897 1.949v3.0397c0 .8584-.1987 1.5169-.5961 1.9696-.3974.4527-1.0448.679-1.9454.679-.9006 0-1.5672-.2293-1.9614-.6761zm2.6825-.729a1.786 1.786 0 00.1859-.8996v-3.7217a1.738 1.738 0 00-.1827-.8819c-.0785-.1064-.1881-.1903-.3162-.2423a.808.808 0 00-.4081-.0517.8196.8196 0 00-.4093.0523.7458.7458 0 00-.3182.2417 1.6995 1.6995 0 00-.1859.8819v3.7393a1.7527 1.7527 0 00.1859.8996.9603.9603 0 00.3265.2229c.1249.0521.2606.079.3978.079s.2729-.0269.3978-.079a.9603.9603 0 00.3265-.2229v-.0176zM57.5505 13.1868h1.6666l1.2531 5.6082 1.282-5.6082h1.6217l.1635 8.0949h-1.1987l-.1282-5.6259-1.2371 5.6259h-.9615l-1.282-5.6465-.1185 5.6465h-1.2115l.1506-8.0949zM65.4061 13.1868h2.596c1.4956 0 2.2434.7662 2.2434 2.2985 0 1.4678-.7874 2.2006-2.362 2.1987h-.8846v3.5977h-1.6024l.0096-8.0949zm2.2178 3.4596c.1583.0184.3191.0051.4713-.0391a1.1282 1.1282 0 00.41-.2166c.1838-.2734.2648-.5945.2308-.9142a2.6867 2.6867 0 00-.0769-.7348.6072.6072 0 00-.118-.2221.6708.6708 0 00-.2025-.163 1.5736 1.5736 0 00-.7147-.1293h-.6218v2.4191h.6218zM72.5559 13.1868h1.7211l1.7658 8.0949h-1.4934L74.2 19.4153h-1.5351l-.359 1.8664H70.79l1.7659-8.0949zm1.4711 5.2908l-.5993-3.3979-.5994 3.3979h1.1987zM77.469 13.1868h1.1218l2.1473 4.6177v-4.6177h1.33v8.0949h-1.0672l-2.1602-4.8205v4.8205h-1.3749l.0032-8.0949zM85.1836 18.1954l-1.7852-4.9969h1.5031l1.0897 3.2098 1.0224-3.2098h1.471l-1.7627 4.9969v3.0863h-1.5383v-3.0863zM47.2146 24.8213v.4233H45.907v3.2893h-.5481v-3.2893h-1.314v-.4233h3.1697zM51.3141 28.5342h-.4231a.1809.1809 0 01-.1186-.0353.1907.1907 0 01-.0705-.0852l-.3781-.8819h-1.8141l-.3781.8819a.2478.2478 0 01-.0577.0999.1872.1872 0 01-.1186.0353h-.4231l1.6025-3.7127h.5577l1.6217 3.698zm-2.6537-1.3787h1.5127l-.641-1.5109a2.8124 2.8124 0 01-.1186-.3498c-.0224.0705-.0416.1381-.0609.1969l-.0576.1558-.6346 1.508zM54.0766 28.1694c.1004.0049.2009.0049.3013 0a1.705 1.705 0 00.2564-.0441 1.8613 1.8613 0 00.2307-.0676c.0706-.0264.1411-.0588.2148-.0911v-.8349h-.641a.1265.1265 0 01-.0466-.0064.1174.1174 0 01-.0399-.023.0853.0853 0 01-.0244-.0305.0786.0786 0 01-.0077-.0371v-.2852h1.2435v1.4229a2.3754 2.3754 0 01-.3205.1764 2.2732 2.2732 0 01-.3557.1264 2.7383 2.7383 0 01-.4006.0764 4.569 4.569 0 01-.468.0235 2.3155 2.3155 0 01-.8076-.1381 1.946 1.946 0 01-.641-.3881 1.7902 1.7902 0 01-.4134-.5879 1.9557 1.9557 0 01-.1474-.7703 2.0303 2.0303 0 01.1442-.7761c.0922-.22.2329-.4202.4134-.5879.1829-.167.401-.2981.641-.3851a2.5454 2.5454 0 01.8589-.1382 3.0298 3.0298 0 01.4455.0323c.1303.0195.2581.051.3814.0941a1.786 1.786 0 01.3205.147c.0982.058.1914.1229.2788.194l-.1538.2293a.1377.1377 0 01-.052.051.1538.1538 0 01-.073.0196.2023.2023 0 01-.0994-.0294 1.9465 1.9465 0 01-.157-.0882 1.3844 1.3844 0 00-.2147-.1 1.9313 1.9313 0 00-.2949-.0823 2.319 2.319 0 00-.407-.0323 1.7932 1.7932 0 00-.6186.1029 1.341 1.341 0 00-.4711.294 1.2986 1.2986 0 00-.2981.4615 1.8376 1.8376 0 000 1.2376c.0702.1746.1794.3339.3205.4675.1315.1273.291.2275.468.2939.2037.0642.4198.0892.6345.0735zM59.1851 28.1106h1.75v.4233h-2.2852v-3.7126h.5481l-.0129 3.2893zM62.7556 28.5339h-.5481v-3.7126h.5481v3.7126zM64.7939 24.8387a.2672.2672 0 01.0833.0676L67.22 27.705a.9128.9128 0 010-.1323V24.8064h.4775v3.7276h-.2756a.2465.2465 0 01-.1186-.0206.3113.3113 0 01-.0865-.0706l-2.3396-2.7956v2.8868h-.4583v-3.7129h.2853a.2401.2401 0 01.0897.0176zM71.7323 24.8213v.4086h-1.9422v1.2258h1.5736v.3939h-1.5736v1.2669h1.9422v.4086h-2.5062v-3.7038h2.5062zM14.3035 1.893l24.335 6.3377V30.439l-24.335-6.3348V1.8931zM12.7427 0v25.1831L40.196 32.335V7.1548L12.7427 0z" fill="#AFB1B8"/><path d="M27.4565 44.0251L0 36.8674V11.6873l27.4565 7.1548v25.183z" fill="#AFB1B8"/><path d="M13.1978 1.608L37.2155 7.866l-10.2141 9.3712-24.0208-6.2612 10.2172-9.3682zM12.7427 0L0 11.6875l27.4565 7.1548L40.196 7.1548 12.7427 0zM29.0015 42.6084L40.1962 32.338l-11.1947-2.9188v13.1892z" fill="#AFB1B8"/></svg>