<svg fill="none" xmlns="http://www.w3.org/2000/svg" viewBox="0 0 45 48"><path d="M6 0l7.3076 6.7025h20.3848v18.6968L41 32.1018V0H6z" fill="#AFB1B8"/><path d="M0 6.4202V37.605h34V25.2093L13.5231 6.4279 0 6.4202zm27.5231 26.6232H5.3801V12.07h1.5652v19.5532h20.5778v1.4202zM9.791 43.4863l.8179-1.6845h.6836l-1.1914 2.2461v1.3085H9.481v-1.3085l-1.194-2.2461h.686l.818 1.6845zm3.5108 1.0425h-1.377l-.2881.8276h-.6421l1.3428-3.5546h.5542l1.3452 3.5546h-.6445l-.2905-.8276zm-1.2037-.498h1.0303l-.5151-1.4746-.5152 1.4746zm3.6377.3662c0-.1644.0448-.315.1343-.4517.0895-.1383.2661-.3019.5298-.4907-.1383-.1742-.2352-.3223-.2905-.4443-.0537-.1221-.0806-.2401-.0806-.3541 0-.2783.0846-.498.2539-.6591.1693-.1628.3972-.2442.6836-.2442.2588 0 .4704.0765.6348.2295.166.1514.249.3394.249.564a.7847.7847 0 01-.1123.4101c-.0749.1237-.1978.2474-.3687.3711l-.2417.1758.6861.8106c.0993-.1953.1489-.4126.1489-.6519h.5151c0 .4378-.1025.7967-.3076 1.0767l.5225.6176h-.6885l-.2002-.2368c-.2539.1905-.5566.2857-.9082.2857s-.6331-.0928-.8447-.2783c-.21-.1872-.315-.4305-.315-.73zm1.1768.5346c.2002 0 .3874-.0667.5615-.2002l-.7763-.9155-.0757.0537c-.1953.1481-.293.3174-.293.5078 0 .1644.0529.2979.1587.4004.1058.1026.2474.1538.4248.1538zm-.3272-2.29c0 .1367.0839.3084.2515.5151l.271-.1855.0757-.061c.1009-.0896.1514-.2043.1514-.3443 0-.0928-.035-.1717-.105-.2368-.07-.0667-.1587-.1001-.2661-.1001-.1156 0-.2076.0391-.2759.1172-.0684.0781-.1026.1766-.1026.2954zm6.4576 1.5576c-.0358.3793-.1758.6755-.42.8887-.2441.2116-.5688.3174-.9741.3174-.2832 0-.533-.0668-.7495-.2002-.2148-.1351-.3808-.3264-.498-.5738-.1172-.2473-.1783-.5346-.1831-.8618v-.332c0-.3353.0594-.6307.1782-.8862.1188-.2556.2889-.4525.5102-.5909.223-.1383.4802-.2075.7715-.2075.3923 0 .708.1066.9473.3199.2392.2132.3784.5143.4175.9033h-.6153c-.0293-.2556-.1041-.4395-.2246-.5518-.1188-.1139-.2938-.1709-.5249-.1709-.2685 0-.4752.0985-.6201.2954-.1432.1953-.2165.4826-.2197.8618v.315c0 .3841.0683.6771.2051.8789.1383.2018.3401.3027.6054.3027.2425 0 .4248-.0545.5469-.1635.1221-.1091.1994-.2906.2319-.5445h.6153zm3.3911-.5273c0 .3483-.0602.6543-.1807.9179-.1204.2621-.293.4639-.5176.6055-.2229.14-.4801.21-.7714.21-.2881 0-.5453-.07-.7715-.21-.2246-.1416-.3988-.3426-.5225-.603-.1221-.2604-.1839-.5607-.1855-.9009v-.2002c0-.3467.061-.6527.1831-.918.1237-.2653.297-.4679.52-.6079.2246-.1416.4818-.2124.7715-.2124.2897 0 .546.07.769.21.2246.1383.398.3385.52.6006.1221.2604.184.5639.1856.9106v.1978zm-.6177-.1856c0-.3939-.0749-.6958-.2246-.9057-.1481-.21-.3589-.315-.6323-.315-.267 0-.4761.105-.6275.315-.1497.2083-.2262.5037-.2295.8862v.2051c0 .3906.0757.6925.2271.9057.153.2133.3646.3199.6348.3199.2734 0 .4834-.1042.6298-.3125.1482-.2084.2222-.5127.2222-.9131v-.1856z" fill="#AFB1B8"/></svg>