<svg fill="none" xmlns="http://www.w3.org/2000/svg" viewBox="0 0 41 42"><path d="M6.3454 40.4926a.1216.1216 0 01.0435.0092.1143.1143 0 01.0363.0241l.2057.2089a1.684 1.684 0 01-.5787.3965 2.1326 2.1326 0 01-.8205.1425 2.0679 2.0679 0 01-.7717-.133 1.6766 1.6766 0 01-.5813-.3751 1.6846 1.6846 0 01-.3755-.5794 2.037 2.037 0 01-.1312-.7432 1.8996 1.8996 0 01.1415-.7455 1.7264 1.7264 0 01.3987-.5794 1.8411 1.8411 0 01.6173-.3775 2.2905 2.2905 0 01.7948-.133 2.0245 2.0245 0 01.7382.1211c.2037.0816.3907.1948.553.3348l-.1723.2232a.1697.1697 0 01-.0438.0403.1122.1122 0 01-.0694.0167.1596.1596 0 01-.0746-.0238l-.0926-.0593-.1286-.076a1.4175 1.4175 0 00-.1723-.0736 1.7129 1.7129 0 00-.2341-.0594 1.6858 1.6858 0 00-.3061-.0237 1.5726 1.5726 0 00-.571.0997 1.297 1.297 0 00-.4476.2802 1.2945 1.2945 0 00-.2906.4464 1.5842 1.5842 0 00-.1055.5888c-.003.2036.0326.4062.1055.5984.0627.1638.1597.3147.2855.444.1178.1206.2638.2148.427.2754.1679.0643.348.0966.5298.095a2.1096 2.1096 0 00.3138-.019 1.1896 1.1896 0 00.4759-.1591 1.55 1.55 0 00.2032-.1472.1557.1557 0 01.0977-.038zm5.9417-1.0498a1.9116 1.9116 0 01-.1389.7384 1.5998 1.5998 0 01-.3874.5733 1.762 1.762 0 01-.608.3764 2.3654 2.3654 0 01-1.5638 0 1.7841 1.7841 0 01-.6045-.3775 1.6839 1.6839 0 01-.391-.5793 2.0376 2.0376 0 010-1.4792 1.7422 1.7422 0 01.391-.5818 1.7905 1.7905 0 01.6045-.3632 2.3259 2.3259 0 011.5638 0c.2285.0856.4352.2142.607.3775.1694.165.3014.3596.3884.5722.0953.2378.1424.4897.1389.7432zm-.5401 0a1.655 1.655 0 00-.0978-.5936 1.23 1.23 0 00-.2752-.444 1.2124 1.2124 0 00-.4347-.2802 1.7082 1.7082 0 00-1.1368 0 1.2123 1.2123 0 00-.4347.2802 1.202 1.202 0 00-.2778.444 1.844 1.844 0 000 1.1872c.058.1642.1527.3154.2778.444.1207.1212.2692.2161.4346.2778a1.7502 1.7502 0 001.1369 0 1.2084 1.2084 0 00.4347-.2778 1.2514 1.2514 0 00.2752-.444 1.6424 1.6424 0 00.0978-.5936zm4.5938.6223l.054.133c.0206-.0475.0386-.0902.0591-.133a1.2756 1.2756 0 01.0669-.1306l1.3144-2.2056c.0257-.038.0488-.0617.0746-.0688a.33.33 0 01.108-.0119h.3884v3.5874h-.4604V38.4863a1.0177 1.0177 0 010-.1235l-1.3221 2.2365a.1984.1984 0 01-.0774.0816.2216.2216 0 01-.1129.03h-.0746c-.0401.0005-.0794-.0098-.1132-.0296s-.0606-.0483-.0772-.082l-1.3606-2.2507v2.8799h-.445v-3.5803h.3884a.33.33 0 01.108.0119.1484.1484 0 01.072.0688l1.3427 2.208a.7702.7702 0 01.0669.1282zm4.9463-.1781v1.3437h-.5144v-3.5824h1.1472a2.316 2.316 0 01.6404.0784c.1665.0435.3209.1196.4527.2231a.9183.9183 0 01.2573.3514c.0607.1461.0904.3017.0874.4582a1.0795 1.0795 0 01-.0952.4581.9824.9824 0 01-.2778.3585 1.2836 1.2836 0 01-.4552.2374 2.0508 2.0508 0 01-.6199.0831l-.6225-.0095zm0-.3846h.6225a1.3607 1.3607 0 00.3987-.0546.852.852 0 00.2881-.1543.6329.6329 0 00.1749-.2374.7235.7235 0 00.0617-.3015.638.638 0 00-.0516-.2918.6864.6864 0 00-.1799-.2447c-.1965-.1416-.4433-.2102-.6919-.1923h-.6225v1.4766zm6.9139 1.7331h-.4064a.1849.1849 0 01-.1132-.0333.2202.2202 0 01-.0669-.0831l-.3498-.8666H25.508l-.3627.8666a.1939.1939 0 01-.0643.0808.185.185 0 01-.1158.0356h-.4064l1.5433-3.5876h.535l1.5639 3.5876zm-2.5464-1.332h1.4507l-.6122-1.4602a2.4658 2.4658 0 01-.1158-.3371l-.0591.1875a1.7515 1.7515 0 01-.0566.152l-.607 1.4578zm4.7687-2.2389a.2216.2216 0 01.0772.0642l2.2506 2.7042V37.648h.4604v3.5875h-.2572a.2363.2363 0 01-.1054-.0214.2822.2822 0 01-.0823-.0664l-2.2481-2.7019a1.0161 1.0161 0 010 .1234v2.6663h-.4604V37.648h.2727a.2327.2327 0 01.0925.0166zm6.5795 2.1439v1.4247h-.5145v-1.4247l-1.4224-2.1607h.4604a.1774.1774 0 01.1106.0309.307.307 0 01.0695.0807l.89 1.3938c.036.0594.0668.114.0926.1662.0257.0522.0463.1021.0643.152l.0668-.1544a1.27 1.27 0 01.0875-.1638l.8771-1.4033a.3646.3646 0 01.0669-.0759.1655.1655 0 01.1106-.0357h.4655l-1.4249 2.1702zm-20.9166-8.1811c.2238.0261.4501.0475.679.0664 3.4706-1.4331 6.4066-3.7786 8.441-6.7435 2.0344-2.9648 3.077-6.4174 2.9974-9.9261l-3.8248-3.5305c.7777 3.7357.4139 7.5974-1.0506 11.1532-1.4646 3.5558-3.9721 6.6652-7.242 8.9805z" fill="#AFB1B8"/><path d="M14.7205 31.4632l.1028.019c3.4943-2.3071 6.1583-5.5287 7.6477-9.2483 1.4894-3.7196 1.7355-7.7661.7067-11.6162l-5.4478-5.0286c2.2034 4.1334 3.0904 8.7592 2.5577 13.3396-.5328 4.5804-2.4633 8.927-5.5671 12.5345zm18.4757-12.2935c-.9256 3.8553-3.1734 7.3323-6.4098 9.9147a20.251 20.251 0 01-3.0454 2.0181c2.6353-.715 5.0576-1.979 7.08-3.6948 2.0224-1.7157 3.5909-3.8372 4.5846-6.2009l-2.2094-2.0371z" fill="#AFB1B8"/><path d="M32.3292 18.6021l-3.1457-2.9036c-.0602 3.3105-1.0798 6.5457-2.9529 9.3694-1.8731 2.8236-4.5313 5.1327-7.6984 6.6872h.0155a19.3389 19.3389 0 002.1117-.1163c2.9598-1.1151 5.5745-2.8892 7.6108-5.164 2.0362-2.2747 3.4307-4.9794 4.059-7.8727zM15.1757 3.4688L11.4229 0C8.0681 1.1966 5.1828 3.3003 3.1446 6.0357 1.1065 8.771.0105 12.0106 0 15.3304c.0126 3.6684 1.3502 7.2281 3.8012 10.1157s5.8752 4.9383 9.7309 5.8273c3.4419-3.8707 5.4571-8.6537 5.7526-13.654.2956-5.0002-1.1438-9.9572-4.109-14.1506zM41 18.0677c-.0136-4.3523-1.8927-8.5227-5.2268-11.6003-3.3341-3.0775-7.8522-4.812-12.5673-4.8246-2.1788-.002-4.3391.369-6.3712 1.0945l22.977 21.209c.7867-1.8748 1.1897-3.8681 1.1883-5.8786z" fill="#AFB1B8"/></svg>