<svg width="41" height="42" fill="none" xmlns="http://www.w3.org/2000/svg"><path d="M6.34541 40.4926a.12165.12165 0 01.04349.0092.11435.11435 0 01.03625.0241l.20577.2089c-.15972.1691-.35714.3044-.57873.3965-.2595.1006-.53917.1492-.82051.1425-.26438.005-.52704-.0402-.77165-.133-.22064-.0851-.41888-.2131-.5813-.3751-.16576-.1681-.29344-.3651-.37553-.5794-.0899-.2389-.13428-.4903-.13118-.7432-.00365-.2545.04433-.5073.14147-.7455.08985-.2157.22539-.4127.39868-.5794.17564-.1635.38574-.292.61731-.3775.25334-.0907.52311-.1358.79479-.133.25237-.0057.5034.0355.73821.1211.20371.0816.39076.1948.55301.3348l-.17234.2232a.16968.16968 0 01-.04372.0403c-.02034.0129-.04491.0188-.06945.0167a.15958.15958 0 01-.07459-.0238l-.0926-.0593-.12861-.076a1.4175 1.4175 0 00-.17233-.0736 1.71286 1.71286 0 00-.23406-.0594 1.68584 1.68584 0 00-.30609-.0237c-.19564-.0023-.38979.0316-.57101.0997-.16901.0631-.32157.1586-.44756.2802-.12825.1293-.22709.2811-.29065.4464-.07244.189-.10814.3883-.10546.5888-.00308.2036.03261.4062.10546.5984.06277.1638.15977.3147.28551.444.11781.1206.26383.2148.42698.2754.16789.0643.34811.0966.52986.095a2.10959 2.10959 0 00.3138-.019c.16961-.0191.33231-.0735.47584-.1591.072-.0438.13996-.093.2032-.1472.02644-.0233.06122-.0368.09774-.038zM12.2871 39.4428c.0032.2519-.0439.5022-.1389.7384-.0838.2142-.2159.4096-.3874.5733-.1716.1637-.3788.292-.608.3764-.5036.1773-1.0603.1773-1.56384 0-.22771-.0857-.43357-.2143-.60444-.3775-.17147-.1667-.30448-.3638-.39096-.5793-.18529-.4783-.18529-1.001 0-1.4792.08774-.2157.22058-.4134.39096-.5818.17233-.1581.37808-.2817.60444-.3632.50294-.1805 1.06094-.1805 1.56384 0 .2285.0856.4352.2142.607.3775.1694.165.3014.3596.3884.5722.0953.2378.1424.4897.1389.7432zm-.5401 0c.004-.2016-.029-.4023-.0978-.5936-.0576-.1639-.1513-.3151-.2752-.444-.1206-.122-.2691-.2177-.4347-.2802-.3659-.1298-.7709-.1298-1.13685 0-.16561.0625-.31409.1582-.43469.2802-.12561.1282-.22029.2795-.27779.444-.13087.3865-.13087.8007 0 1.1872.05806.1642.15268.3154.27779.444.12075.1212.26924.2161.43469.2778.36655.1265.77035.1265 1.13685 0 .1655-.0617.314-.1566.4347-.2778.1234-.1293.217-.2804.2752-.444.0691-.1913.1021-.3921.0978-.5936zM16.3408 40.0651l.054.133c.0206-.0475.0386-.0902.0591-.133.0197-.0446.042-.0882.0669-.1306l1.3144-2.2056c.0257-.038.0488-.0617.0746-.0688a.33008.33008 0 01.108-.0119h.3884v3.5874h-.4604v-2.6377-.1116a1.01775 1.01775 0 010-.1235l-1.3221 2.2365c-.0168.0335-.0437.0618-.0774.0816-.0338.0198-.073.0302-.1129.03h-.0746c-.0401.0005-.0794-.0098-.1132-.0296s-.0606-.0483-.0772-.082l-1.3606-2.2507v2.8799h-.445v-3.5803h.3884c.0365-.002.0731.002.108.0119.0319.0146.0573.0389.072.0688l1.3427 2.208a.77018.77018 0 01.0669.1282zM21.2871 39.887v1.3437h-.5144v-3.5824h1.1472c.2165-.0038.4325.0226.6404.0784.1665.0435.3209.1196.4527.2231.1143.097.2024.2173.2573.3514.0607.1461.0904.3017.0874.4582.0023.1571-.0301.3129-.0952.4581-.0618.1375-.1568.2601-.2778.3585-.1319.1078-.2871.1887-.4552.2374-.2003.0591-.4097.0872-.6199.0831l-.6225-.0095zm0-.3846h.6225c.1352.0016.2698-.0168.3987-.0546.1063-.033.2043-.0855.2881-.1543.0772-.0657.1371-.1469.1749-.2374.0421-.0957.0631-.1982.0617-.3015.006-.0996-.0116-.1992-.0516-.2918-.04-.0927-.1014-.1762-.1799-.2447-.1965-.1416-.4433-.2102-.6919-.1923h-.6225v1.4766zM28.201 41.2355h-.4064c-.0408.0014-.0808-.0103-.1132-.0333-.0292-.0223-.0521-.0508-.0669-.0831l-.3498-.8666H25.508l-.3627.8666c-.0133.0317-.0355.0596-.0643.0808-.0327.0243-.0738.0369-.1158.0356h-.4064l1.5433-3.5876h.535l1.5639 3.5876zm-2.5464-1.332h1.4507l-.6122-1.4602a2.4658 2.4658 0 01-.1158-.3371l-.0591.1875c-.018.057-.0386.1093-.0566.152l-.607 1.4578zM30.4233 37.6646c.0308.0156.0572.0376.0772.0642l2.2506 2.7042v-.1258V37.648h.4604v3.5875h-.2572c-.0365.001-.0727-.0063-.1054-.0214-.0318-.0171-.0597-.0396-.0823-.0664l-2.2481-2.7019a1.0161 1.0161 0 010 .1234v2.6663h-.4604V37.648h.2727a.23274.23274 0 01.0925.0166zM37.0028 39.8085v1.4247h-.5145v-1.4247l-1.4224-2.1607h.4604c.0397-.0021.0789.0088.1106.0309.028.023.0515.0503.0695.0807l.89 1.3938c.036.0594.0668.114.0926.1662.0257.0522.0463.1021.0643.152l.0668-.1544c.025-.0564.0542-.1111.0875-.1638l.8771-1.4033a.36458.36458 0 01.0669-.0759c.0305-.0246.0701-.0374.1106-.0357h.4655l-1.4249 2.1702zM16.0862 31.6274c.2238.0261.4501.0475.679.0664 3.4706-1.4331 6.4066-3.7786 8.441-6.7435 2.0344-2.9648 3.077-6.4174 2.9974-9.9261l-3.8248-3.5305c.7777 3.7357.4139 7.5974-1.0506 11.1532-1.4646 3.5558-3.9721 6.6652-7.242 8.9805z" fill="#AFB1B8"/><path d="M14.7205 31.4632l.1028.019c3.4943-2.3071 6.1583-5.5287 7.6477-9.2483 1.4894-3.7196 1.7355-7.7661.7067-11.6162l-5.4478-5.02859c2.2034 4.13338 3.0904 8.75919 2.5577 13.33959-.5328 4.5804-2.4633 8.927-5.5671 12.5345zM33.1962 19.1697c-.9256 3.8553-3.1734 7.3323-6.4098 9.9147-.9452.7584-1.9647 1.434-3.0454 2.0181 2.6353-.715 5.0576-1.979 7.08-3.6948 2.0224-1.7157 3.5909-3.8372 4.5846-6.2009l-2.2094-2.0371z" fill="#AFB1B8"/><path d="M32.3292 18.6021l-3.1457-2.9036c-.0602 3.3105-1.0798 6.5457-2.9529 9.3694-1.8731 2.8236-4.5313 5.1327-7.6984 6.6872h.0155a19.33886 19.33886 0 002.1117-.1163c2.9598-1.1151 5.5745-2.8892 7.6108-5.164 2.0362-2.2747 3.4307-4.9794 4.059-7.8727zM15.1757 3.46876L11.4229 0C8.06808 1.19665 5.18278 3.30031 3.14464 6.03565 1.1065 8.771.01047 12.0106 0 15.3304c.01257 3.6684 1.3502 7.2281 3.80116 10.1157 2.45097 2.8876 5.87526 4.9383 9.73094 5.8273 3.4419-3.8707 5.4571-8.6537 5.7526-13.654.2956-5.0002-1.1438-9.95717-4.109-14.15064zM41 18.0677c-.0136-4.3523-1.8927-8.52274-5.2268-11.60029-3.3341-3.07755-7.8522-4.81205-12.5673-4.82458-2.1788-.00208-4.3391.36904-6.3712 1.09452l22.977 21.20895c.7867-1.8748 1.1897-3.8681 1.1883-5.8786z" fill="#AFB1B8"/></svg>