<svg fill="none" xmlns="http://www.w3.org/2000/svg" viewBox="0 0 82 41"><path d="M12.7669 12.4309h-.0028c-2.3288 0-4.2167 1.7315-4.2167 3.8675v.0026c0 2.1359 1.8879 3.8675 4.2167 3.8675h.0028c2.3288 0 4.2167-1.7316 4.2167-3.8675v-.0026c0-2.136-1.8879-3.8675-4.2167-3.8675zm31.124-1.2363c-.0066-2.9667-1.2942-5.8102-3.5812-7.9082C38.0228 1.1884 34.9228.0067 31.6882 0c-3.2355.0054-6.3369 1.1865-8.625 3.2846-2.2882 2.0982-3.5766 4.9425-3.5832 7.91v16.3598s24.4082-2.4933 24.4109-16.3572v-.0026zM0 32.924c.0059 2.0642.9023 4.0424 2.4935 5.5023 1.5912 1.4599 3.7477 2.2827 5.9984 2.2888 2.2501-.0061 4.4062-.8286 5.9973-2.2879s2.4879-3.4369 2.4945-5.5007V21.5432S0 23.2794 0 32.924zm8.4918 2.0395c-.4398 0-.8697-.1196-1.2354-.3437-.3657-.2241-.6507-.5426-.819-.9153-.1683-.3727-.2124-.7828-.1266-1.1784.0859-.3957.2976-.7591.6086-1.0443.311-.2853.7073-.4795 1.1386-.5582a2.4105 2.4105 0 011.2848.1161c.4064.1543.7537.4157.998.7511.2444.3354.3748.7298.3748 1.1332a1.8926 1.8926 0 01-.1669.7828c-.1113.2484-.2749.4741-.4815.6643a2.2464 2.2464 0 01-.7224.4441 2.3986 2.3986 0 01-.853.156v-.0077zm17.2487-1.1329H24.053v1.7431h-.8789v-4.2656h2.7773v.7119H24.053v1.1016h1.6875v.709zm4.2246-.293c0 .4199-.0742.7881-.2227 1.1045-.1484.3164-.3613.5605-.6386.7324-.2754.1719-.5918.2578-.9493.2578-.3535 0-.6689-.0849-.9462-.2549-.2774-.1699-.4922-.4121-.6446-.7265-.1523-.3164-.2295-.6797-.2314-1.0899v-.2109c0-.4199.0752-.7891.2256-1.1074.1523-.3203.3662-.5655.6416-.7354.2773-.1719.5937-.2578.9492-.2578.3555 0 .6709.0859.9463.2578.2773.1699.4912.4151.6416.7354.1523.3183.2285.6865.2285 1.1045v.1904zm-.8906-.1934c0-.4472-.0801-.7871-.2403-1.0195-.1601-.2324-.3886-.3486-.6855-.3486-.2949 0-.5225.1152-.6826.3457-.1602.2285-.2412.5644-.2432 1.0078v.208c0 .4355.0801.7734.2402 1.0137.1602.2402.3907.3603.6914.3603.295 0 .5215-.1152.6797-.3457.1582-.2324.2383-.5703.2403-1.0137v-.208zm3.7412 1.1104c0-.166-.0586-.293-.1758-.3809-.1172-.0898-.3281-.1836-.6328-.2812-.3047-.0996-.5459-.1973-.7237-.293-.4843-.2617-.7265-.6142-.7265-1.0576 0-.2305.0644-.4356.1933-.6152.1309-.1817.3174-.3233.5596-.4248.2442-.1016.5176-.1524.8203-.1524.3047 0 .5762.0557.8145.167.2383.1094.4228.2647.5537.4658.1328.2012.1992.4297.1992.6856h-.8789c0-.1953-.0615-.3467-.1846-.4541-.123-.1094-.2959-.1641-.5185-.1641-.2149 0-.3819.0459-.501.1377-.1191.0898-.1787.209-.1787.3574 0 .1387.0693.2549.208.3487.1406.0937.3467.1816.6182.2636.5.1504.8642.3369 1.0927.5596.2286.2227.3428.5.3428.832 0 .3692-.1396.6592-.4189.8701-.2793.209-.6553.3135-1.128.3135-.3281 0-.6269-.0595-.8964-.1787-.2696-.1211-.4756-.2861-.6182-.4951-.1406-.209-.211-.4512-.211-.7266h.8819c0 .4707.2812.7061.8437.7061.209 0 .3721-.042.4893-.126.1172-.0859.1758-.2051.1758-.3574zm4.6904-2.4346h-1.3066v3.5537h-.8789V32.02h-1.2891v-.7119h3.4746v.7119zm3.0703 1.7051h-1.6875v1.1426h1.9805v.706H38.01v-4.2656h2.8535v.7119h-1.9746v1.0166h1.6875v.6885zm2.3877.2871h-.7002v1.5615h-.8789v-4.2656h1.585c.5039 0 .8925.1123 1.166.3369.2734.2246.4101.542.4101.9522 0 .291-.0634.5341-.1904.7295-.125.1933-.3154.3476-.5713.4629l.9229 1.7431v.041h-.9434l-.7998-1.5615zm-.7002-.7119h.709c.2207 0 .3916-.0557.5127-.167.1211-.1133.1816-.2686.1816-.4658 0-.2012-.0576-.3594-.1728-.4746-.1133-.1153-.2881-.1729-.5244-.1729h-.7061v1.2803zm5.3262.7705v1.5029h-.8789v-4.2656h1.664c.3204 0 .6016.0586.8438.1758.2441.1172.4316.2842.5625.501.1309.2148.1963.4599.1963.7353 0 .418-.1436.7481-.4307.9902-.2851.2403-.6806.3604-1.1865.3604h-.7705zm0-.7119h.7851c.2325 0 .4092-.0547.5303-.1641.1231-.1094.1846-.2656.1846-.4687 0-.209-.0615-.378-.1846-.5069-.123-.1289-.293-.1953-.5097-.1992h-.8057v1.3389zm5.5605.3662h-1.6875v1.1426h1.9805v.706h-2.8594v-4.2656h2.8535v.7119h-1.9746v1.0166h1.6875v.6885zm4.0782-1.7051h-1.3067v3.5537h-.8789V32.02h-1.289v-.7119h3.4746v.7119zm3.0703 1.7051h-1.6875v1.1426h1.9804v.706h-2.8593v-4.2656h2.8535v.7119h-1.9746v1.0166h1.6875v.6885zm2.3877.2871h-.7002v1.5615h-.8789v-4.2656h1.5849c.5039 0 .8926.1123 1.166.3369.2735.2246.4102.542.4102.9522 0 .291-.0635.5341-.1904.7295-.125.1933-.3155.3476-.5713.4629l.9228 1.7431v.041h-.9433l-.7998-1.5615zm-.7002-.7119h.709c.2207 0 .3916-.0557.5127-.167.121-.1133.1816-.2686.1816-.4658 0-.2012-.0576-.3594-.1729-.4746-.1132-.1153-.288-.1729-.5244-.1729h-.706v1.2803zm5.165 1.1543c0-.166-.0586-.293-.1758-.3809-.1172-.0898-.3281-.1836-.6328-.2812-.3047-.0996-.5459-.1973-.7236-.293-.4844-.2617-.7266-.6142-.7266-1.0576 0-.2305.0645-.4356.1934-.6152.1308-.1817.3174-.3233.5596-.4248.2441-.1016.5175-.1524.8203-.1524.3047 0 .5761.0557.8144.167.2383.1094.4229.2647.5537.4658.1328.2012.1992.4297.1992.6856h-.8789c0-.1953-.0615-.3467-.1845-.4541-.1231-.1094-.2959-.1641-.5186-.1641-.2148 0-.3818.0459-.501.1377-.1191.0898-.1787.209-.1787.3574 0 .1387.0694.2549.208.3487.1407.0937.3467.1816.6182.2636.5.1504.8643.3369 1.0928.5596.2285.2227.3427.5.3427.832 0 .3692-.1396.6592-.4189.8701-.2793.209-.6553.3135-1.1279.3135-.3282 0-.627-.0595-.8965-.1787-.2695-.1211-.4756-.2861-.6182-.4951-.1406-.209-.2109-.4512-.2109-.7266h.8818c0 .4707.2813.7061.8438.7061.209 0 .372-.042.4892-.126.1172-.0859.1758-.2051.1758-.3574z" fill="#AFB1B8"/></svg>